<?xml version="1.0" standalone="no"?>
<!DOCTYPE svg PUBLIC "-//W3C//DTD SVG 20010904//EN"
 "http://www.w3.org/TR/2001/REC-SVG-20010904/DTD/svg10.dtd">
<svg version="1.0" xmlns="http://www.w3.org/2000/svg"
 width="84.000000pt" height="84.000000pt" viewBox="0 0 84.000000 84.000000"
 preserveAspectRatio="xMidYMid meet">
<metadata>
Created by potrace 1.16, written by Peter Selinger 2001-2019
</metadata>
<g transform="translate(0.000000,84.000000) scale(0.100000,-0.100000)"
fill="#000000" stroke="none">
<path d="M22 688 l3 -143 60 -3 c33 -2 62 -7 65 -13 4 -5 6 -61 5 -124 -1
-102 1 -115 16 -115 14 0 17 13 17 108 0 59 0 115 1 124 1 15 15 18 114 20
l112 3 3 143 3 142 -201 0 -201 0 3 -142z"/>
<path d="M636 814 c-4 -10 -13 -13 -27 -9 -31 10 -61 -22 -54 -57 5 -21 3 -28
-9 -28 -22 0 -22 -68 -1 -76 10 -4 13 -14 9 -28 -7 -28 27 -60 54 -52 14 5 24
-1 37 -20 13 -21 17 -49 16 -140 0 -91 3 -114 14 -114 11 0 14 23 14 114 -1
91 3 119 16 140 13 19 23 25 37 20 27 -8 61 24 54 52 -4 14 -1 24 9 28 21 7
21 76 0 76 -11 0 -13 7 -9 29 5 24 1 32 -19 45 -13 9 -32 14 -41 10 -10 -4
-18 0 -22 10 -8 21 -70 22 -78 0z"/>
<path d="M384 516 c-43 -19 -61 -65 -45 -116 13 -43 52 -80 86 -80 34 0 73 37
86 80 16 53 -2 97 -47 116 -40 17 -41 17 -80 0z"/>
<path d="M286 339 c-14 -11 -26 -29 -26 -40 0 -18 9 -19 166 -19 l165 0 -6 23
c-14 46 -76 76 -89 42 -3 -9 -20 -22 -38 -29 -36 -16 -76 -6 -104 25 -22 24
-35 24 -68 -2z"/>
<path d="M217 195 l6 -65 -37 0 c-26 0 -36 -4 -34 -12 6 -18 59 -22 69 -6 6 8
9 -3 9 -29 0 -36 -3 -43 -20 -43 -11 0 -20 -7 -20 -15 0 -13 32 -15 230 -15
198 0 230 2 230 15 0 8 -7 15 -15 15 -10 0 -15 10 -15 33 0 32 1 33 35 29 28
-3 35 -1 35 13 0 14 -7 16 -34 13 -20 -2 -33 0 -31 7 2 5 6 36 9 68 l6 57
-215 0 -214 0 6 -65z"/>
</g>
</svg>
